<svg viewBox="0 0 170 170" fill="none" xmlns="http://www.w3.org/2000/svg"><path fill-rule="evenodd" clip-rule="evenodd" d="M169.806 5.905 127.731 47.98c2.488 4.792 1.724 10.835-2.298 14.856-4.968 4.97-13.025 4.97-17.993 0-4.969-4.969-4.969-13.025 0-17.994 4.021-4.02 10.063-4.785 14.855-2.297L164.37.47 40.962 49.778l8.374 71.161 71.161 8.374 49.31-123.408h-.001Z" fill="#A133FF"/><path fill-rule="evenodd" clip-rule="evenodd" d="m120.496 129.312-71.16-8.373 58.103-58.103c4.971 4.971 13.023 4.971 17.994 0 4.021-4.02 4.786-10.06 2.294-14.856l42.078-42.077-49.309 123.41v-.001Z" fill="#33ADFF"/><path fill-rule="evenodd" clip-rule="evenodd" d="m43.907 126.366 5.972 22.332L.744 169.53l20.832-49.135 22.331 5.971Z" fill="#FF384F"/><path fill-rule="evenodd" clip-rule="evenodd" d="M49.88 148.7.746 169.528l43.162-43.163L49.88 148.7Z" fill="#FFA369"/></svg>