<svg viewBox="0 0 24 24" xmlns="http://www.w3.org/2000/svg"><path fill="none" d="M0 0h24v24H0Z"/><g fill="#22d0ee"><path d="M13.25 12c0 .69-.56 1.25-1.25 1.25 -.7 0-1.25-.56-1.25-1.25 0-.7.55-1.25 1.25-1.25 .69 0 1.25.55 1.25 1.25Zm1.5 0c0-1.52-1.24-2.75-2.75-2.75 -1.52 0-2.75 1.23-2.75 2.75 0 1.51 1.23 2.75 2.75 2.75 1.51 0 2.75-1.24 2.75-2.75Z"/><path d="M20.25 12c0 4.55-3.7 8.25-8.25 8.25 -4.56 0-8.25-3.7-8.25-8.25 0-4.56 3.69-8.25 8.25-8.25 4.55 0 8.25 3.69 8.25 8.25Zm1.5 0c0-5.39-4.37-9.75-9.75-9.75 -5.39 0-9.75 4.36-9.75 9.75 0 5.38 4.36 9.75 9.75 9.75 5.38 0 9.75-4.37 9.75-9.75Z"/><path d="M17.01 10.48c.42 1.38.25 2.88-.48 4.13 -.21.35-.09.81.26 1.02 .35.2.81.08 1.02-.27 .94-1.62 1.16-3.56.61-5.34 -.13-.4-.55-.62-.94-.5 -.4.12-.62.54-.5.93Z"/><path d="M15.46 7.46l-2.59 2.59c-.3.29-.3.76 0 1.06 .29.29.76.29 1.06 0l2.59-2.59c.29-.3.29-.77 0-1.07 -.3-.3-.77-.3-1.07 0Z"/><path d="M7.45 14.62c-1.46-2.5-.63-5.7 1.86-7.16 1.26-.75 2.78-.92 4.18-.49 .39.12.81-.1.93-.5s-.1-.82-.5-.94c-1.81-.56-3.76-.34-5.39.62 -3.21 1.87-4.29 5.99-2.41 9.2 .2.35.66.47 1.02.26 .35-.21.47-.67.26-1.03Z"/></g></svg>