<svg viewBox="0 0 24 24" xmlns="http://www.w3.org/2000/svg"><g fill="#21D2EE"><path d="M6.54 10.59l3.08 2.37c1.32 1.01 3.15 1.04 4.5.05l3.31-2.43c.33-.25.4-.72.16-1.05 -.25-.34-.72-.41-1.05-.17l-3.32 2.42c-.81.59-1.91.57-2.71-.04L7.42 9.36c-.33-.26-.8-.2-1.06.13 -.26.32-.2.79.13 1.05Z"/><path d="M20.25 12v3.5c0 2.34-1.91 4.25-4.25 4.25H8c-2.35 0-4.25-1.91-4.25-4.25v-7c0-2.35 1.9-4.25 4.25-4.25l8-.001c2.34 0 4.25 1.9 4.25 4.25v3.5Zm1.5 0V8.5c0-3.18-2.58-5.75-5.75-5.75l-8 0c-3.18 0-5.75 2.57-5.75 5.75v7c0 3.17 2.57 5.75 5.75 5.75h8c3.17 0 5.75-2.58 5.75-5.75V12Z"/></g><path fill="none" d="M0 0h24v24H0Z"/></svg>