<svg viewBox="0 0 24 24" xmlns="http://www.w3.org/2000/svg"><path fill="none" d="M0 0h24v24H0V0Z"/><g fill="#22d0ee"><path d="M3.53 18.91l9.19-9.19c.09-.1.25-.1.35-.01l1.2 1.2c.09.09.09.25 0 .35l-9.2 9.19 .53-.22H2.98l.75.75v-2.62l-.22.53Zm-1.07-1.07c-.15.14-.22.33-.22.53v2.62c0 .41.33.75.75.75h2.62c.19 0 .38-.08.53-.22l9.19-9.19c.68-.69.68-1.8 0-2.48l-1.21-1.21c-.69-.69-1.8-.69-2.48 0l-9.19 9.19Z"/><path d="M13.73 12.89l-2.62-2.63c-.3-.3-.77-.3-1.07-.01 -.3.29-.3.76-.01 1.06l2.62 2.63c.29.29.76.29 1.06 0 .29-.3.29-.77 0-1.07Z"/><path d="M3.75 13V6.375c0-1.45 1.17-2.625 2.625-2.625h11.25c1.44 0 2.625 1.17 2.625 2.625v11.25c0 1.44-1.18 2.625-2.625 2.625H11c-.42 0-.75.33-.75.75 0 .41.33.75.75.75h6.625c2.27 0 4.125-1.85 4.125-4.125V6.375c0-2.28-1.85-4.125-4.125-4.125H6.375c-2.28 0-4.125 1.84-4.125 4.125V13c0 .41.33.75.75.75 .41 0 .75-.34.75-.75Z"/></g></svg>